<svg xmlns="http://www.w3.org/2000/svg" height="591pt" version="1.1" viewBox="1 1 591 591.6" width="591pt">
<g id="surface1">
<path d="M 504.929688 372.183594 C 490.996094 363.816406 472.941406 367.855469 463.90625 381.371094 L 418.78125 449.101562 L 418.78125 316.414062 C 418.78125 299.5 405.074219 285.792969 388.160156 285.792969 C 371.25 285.792969 357.542969 299.5 357.542969 316.414062 C 357.542969 299.5 343.832031 285.792969 326.921875 285.792969 C 310.007812 285.792969 296.300781 299.5 296.300781 316.414062 C 296.300781 299.5 282.589844 285.792969 265.679688 285.792969 C 248.765625 285.792969 235.058594 299.5 235.058594 316.414062 C 235.058594 299.5 221.351562 285.792969 204.4375 285.792969 C 187.527344 285.792969 173.816406 299.5 173.816406 316.414062 L 173.816406 530.757812 C 173.816406 564.585938 201.234375 592 235.058594 592 L 362.339844 592 C 391.019531 592 417.597656 576.953125 432.359375 552.355469 L 515.382812 413.980469 C 524.035156 399.550781 519.351562 380.839844 504.929688 372.183594 Z M 504.929688 372.183594 " style=" stroke:none;fill-rule:nonzero;fill:rgb(100%,71.764706%,50.980392%);fill-opacity:1;" />
<path d="M 306.507812 530.757812 L 286.09375 530.757812 C 286.152344 480.050781 327.246094 438.957031 377.957031 438.898438 L 418.78125 438.898438 L 418.78125 459.308594 L 377.957031 459.308594 C 338.515625 459.351562 306.546875 491.320312 306.507812 530.757812 Z M 306.507812 530.757812 " style=" stroke:none;fill-rule:nonzero;fill:rgb(94.901961%,64.313725%,43.529412%);fill-opacity:1;" />
<path d="M 173.816406 367.449219 L 418.78125 367.449219 L 418.78125 387.863281 L 173.816406 387.863281 Z M 173.816406 367.449219 " style=" stroke:none;fill-rule:nonzero;fill:rgb(96.078431%,67.058824%,46.27451%);fill-opacity:1;" />
<path d="M 224.851562 316.414062 L 245.265625 316.414062 L 245.265625 418.484375 L 224.851562 418.484375 Z M 224.851562 316.414062 " style=" stroke:none;fill-rule:nonzero;fill:rgb(94.901961%,64.313725%,43.529412%);fill-opacity:1;" />
<path d="M 286.09375 316.414062 L 306.507812 316.414062 L 306.507812 418.484375 L 286.09375 418.484375 Z M 286.09375 316.414062 " style=" stroke:none;fill-rule:nonzero;fill:rgb(94.901961%,64.313725%,43.529412%);fill-opacity:1;" />
<path d="M 347.335938 316.414062 L 367.75 316.414062 L 367.75 418.484375 L 347.335938 418.484375 Z M 347.335938 316.414062 " style=" stroke:none;fill-rule:nonzero;fill:rgb(94.901961%,64.313725%,43.529412%);fill-opacity:1;" />
<path d="M 0.300781 0 L 592.300781 0 L 592.300781 142.898438 L 0.300781 142.898438 Z M 0.300781 0 " style=" stroke:none;fill-rule:nonzero;fill:rgb(26.27451%,59.607843%,81.960784%);fill-opacity:1;" />
<path d="M 520.851562 40.828125 L 71.75 40.828125 C 54.835938 40.828125 41.128906 54.535156 41.128906 71.449219 C 41.128906 88.359375 54.835938 102.070312 71.75 102.070312 L 520.851562 102.070312 C 537.765625 102.070312 551.472656 88.359375 551.472656 71.449219 C 551.472656 54.535156 537.765625 40.828125 520.851562 40.828125 Z M 520.851562 40.828125 " style=" stroke:none;fill-rule:nonzero;fill:rgb(7.058824%,37.647059%,60%);fill-opacity:1;" />
<path d="M 81.957031 122.484375 L 510.644531 122.484375 L 510.644531 367.449219 L 81.957031 367.449219 Z M 81.957031 122.484375 " style=" stroke:none;fill-rule:nonzero;fill:rgb(38.431373%,54.117647%,15.294118%);fill-opacity:1;" />
<path d="M 81.957031 81.65625 L 510.644531 81.65625 L 510.644531 326.621094 L 81.957031 326.621094 Z M 81.957031 81.65625 " style=" stroke:none;fill-rule:nonzero;fill:rgb(41.960784%,58.823529%,16.470588%);fill-opacity:1;" />
<path d="M 81.957031 40.828125 L 510.644531 40.828125 L 510.644531 285.792969 L 81.957031 285.792969 Z M 81.957031 40.828125 " style=" stroke:none;fill-rule:nonzero;fill:rgb(53.333333%,70.196078%,21.568627%);fill-opacity:1;" />
<path d="M 439.195312 244.964844 L 153.402344 244.964844 C 153.402344 228.054688 139.695312 214.34375 122.78125 214.34375 L 122.78125 112.277344 C 139.695312 112.277344 153.402344 98.566406 153.402344 81.65625 L 439.195312 81.65625 C 439.195312 98.566406 452.90625 112.277344 469.816406 112.277344 L 469.816406 214.34375 C 452.90625 214.34375 439.195312 228.054688 439.195312 244.964844 Z M 439.195312 244.964844 " style=" stroke:none;fill-rule:nonzero;fill:rgb(41.960784%,58.823529%,16.470588%);fill-opacity:1;" />
<path d="M 163.609375 153.101562 L 184.023438 153.101562 L 184.023438 173.515625 L 163.609375 173.515625 Z M 163.609375 153.101562 " style=" stroke:none;fill-rule:nonzero;fill:rgb(53.333333%,70.196078%,21.568627%);fill-opacity:1;" />
<path d="M 408.574219 153.101562 L 428.988281 153.101562 L 428.988281 173.515625 L 408.574219 173.515625 Z M 408.574219 153.101562 " style=" stroke:none;fill-rule:nonzero;fill:rgb(53.333333%,70.196078%,21.568627%);fill-opacity:1;" />
<path d="M 81.957031 438.898438 C 42.515625 438.855469 10.546875 406.886719 10.507812 367.449219 L 30.921875 367.449219 C 30.953125 395.621094 53.785156 418.453125 81.957031 418.484375 Z M 81.957031 438.898438 " style=" stroke:none;fill-rule:nonzero;fill:rgb(85.490196%,86.666667%,87.45098%);fill-opacity:1;" />
<path d="M 367.75 163.308594 C 367.75 118.214844 335.761719 81.65625 296.300781 81.65625 C 256.839844 81.65625 224.851562 118.214844 224.851562 163.308594 C 224.851562 208.40625 256.839844 244.964844 296.300781 244.964844 C 335.761719 244.964844 367.75 208.40625 367.75 163.308594 Z M 367.75 163.308594 " style=" stroke:none;fill-rule:nonzero;fill:rgb(53.333333%,70.196078%,21.568627%);fill-opacity:1;" />
<path d="M 81.957031 40.828125 L 510.644531 40.828125 L 510.644531 81.65625 L 81.957031 81.65625 Z M 81.957031 40.828125 " style=" stroke:none;fill-rule:nonzero;fill:rgb(50.196078%,65.882353%,20.392157%);fill-opacity:1;" />
</g>
</svg>