<svg height="512pt" viewBox="0 0 512 512" width="512pt" xmlns="http://www.w3.org/2000/svg"><path d="m512 256c0 141.386719-114.613281 256-256 256s-256-114.613281-256-256 114.613281-256 256-256 256 114.613281 256 256zm0 0" fill="#00c8c8"/><path d="m511.1875 276.433594-129.648438-129.648438-21.308593 34.90625-98.230469-98.230468-53.367188 54.40625 110.746094 110.75-5.625 9.222656-85.035156-85.03125-132.4375 224.789062 109.453125 109.457032c16.253906 3.234374 33.058594 4.945312 50.265625 4.945312 134.507812 0 244.777344-103.734375 255.1875-235.566406zm0 0" fill="#00afcc"/><path d="m244.246094 212.355469c0 32.109375-26.03125 58.140625-58.144532 58.140625-32.109374 0-58.140624-26.03125-58.140624-58.140625 0-32.113281 26.03125-58.144531 58.140624-58.144531 32.113282 0 58.144532 26.03125 58.144532 58.144531zm0 0" fill="#ffc612"/><path d="m186.101562 154.210938c-.207031 0-.414062.015624-.625.015624v116.253907c.210938 0 .417969.015625.625.015625 32.113282 0 58.144532-26.03125 58.144532-58.144532 0-32.109374-26.03125-58.140624-58.144532-58.140624zm0 0" fill="#fa0"/><path d="m223.242188 212.355469c0 20.511719-16.625 37.140625-37.140626 37.140625-20.511718 0-37.140624-16.628906-37.140624-37.140625 0-20.515625 16.628906-37.140625 37.140624-37.140625 20.515626 0 37.140626 16.625 37.140626 37.140625zm0 0" fill="#ffb115"/><path d="m186.101562 175.210938c-.207031 0-.414062.011718-.625.015624v74.253907c.207032 0 .417969.015625.625.015625 20.511719 0 37.140626-16.628906 37.140626-37.144532 0-20.511718-16.628907-37.140624-37.140626-37.140624zm0 0" fill="#ff8500"/><path d="m394.949219 183.925781c0 32.109375-26.03125 58.140625-58.144531 58.140625-32.109376 0-58.140626-26.03125-58.140626-58.140625 0-32.113281 26.03125-58.144531 58.140626-58.144531 32.113281 0 58.144531 26.03125 58.144531 58.144531zm0 0" fill="#ffc612"/><path d="m336.804688 125.78125c-.246094 0-.488282.015625-.734376.019531v116.25c.246094.003907.488282.019531.734376.019531 32.113281 0 58.144531-26.03125 58.144531-58.144531s-26.03125-58.144531-58.144531-58.144531zm0 0" fill="#fa0"/><path d="m373.945312 183.925781c0 20.511719-16.625 37.140625-37.140624 37.140625-20.511719 0-37.140626-16.628906-37.140626-37.140625s16.628907-37.140625 37.140626-37.140625c20.515624 0 37.140624 16.628906 37.140624 37.140625zm0 0" fill="#ffb115"/><path d="m336.804688 146.785156c-.246094 0-.488282.011719-.734376.019532v74.242187c.246094.007813.488282.019531.734376.019531 20.515624 0 37.140624-16.628906 37.140624-37.140625s-16.628906-37.140625-37.140624-37.140625zm0 0" fill="#ff8500"/><path d="m271.953125 108.144531c0 21.339844-17.300781 38.640625-38.640625 38.640625s-38.636719-17.300781-38.636719-38.640625c0-21.339843 17.296875-38.640625 38.636719-38.640625s38.640625 17.300782 38.640625 38.640625zm0 0" fill="#ffc612"/><path d="m233.3125 69.503906c-.273438 0-.542969.015625-.8125.019532v77.238281c.273438.007812.539062.023437.8125.023437 21.339844 0 38.640625-17.300781 38.640625-38.640625 0-21.339843-17.296875-38.640625-38.640625-38.640625zm0 0" fill="#fa0"/><path d="m257.996094 108.144531c0 13.632813-11.050782 24.683594-24.683594 24.683594-13.628906 0-24.679688-11.050781-24.679688-24.683594 0-13.632812 11.050782-24.683593 24.679688-24.683593 13.632812 0 24.683594 11.050781 24.683594 24.683593zm0 0" fill="#ffb115"/><path d="m233.3125 83.460938c-.273438 0-.542969.011718-.8125.019531v49.324219c.269531.011718.539062.023437.8125.023437 13.632812 0 24.683594-11.050781 24.683594-24.683594 0-13.632812-11.050782-24.683593-24.683594-24.683593zm0 0" fill="#ff8500"/><path d="m96.28125 226h319.4375v171.597656h-319.4375zm0 0" fill="#fff"/><path d="m256 226h159.71875v171.597656h-159.71875zm0 0" fill="#e9edf5"/><path d="m96.28125 397.597656 159.71875-109.289062 159.71875 109.289062zm0 0" fill="#dce1eb"/><path d="m256 288.308594v109.289062h159.71875zm0 0" fill="#cdd2e1"/><path d="m415.71875 226-159.71875 106.855469-159.71875-106.855469zm0 0" fill="#ff7045"/><path d="m256 332.855469 159.71875-106.855469h-159.71875zm0 0" fill="#ea3f24"/></svg>