<?xml version="1.0" encoding="iso-8859-1"?>
<!-- Generator: Adobe Illustrator 19.0.0, SVG Export Plug-In . SVG Version: 6.00 Build 0)  -->
<svg xmlns="http://www.w3.org/2000/svg" xmlns:xlink="http://www.w3.org/1999/xlink" version="1.1" id="Capa_1" x="0px" y="0px" viewBox="0 0 512 512" style="enable-background:new 0 0 512 512;" xml:space="preserve" width="512" height="512">
<g>
	<path style="fill:#53B1A2;" d="M5.5,256c0-135.132,109.402-244.711,244.466-244.999c134.484-0.287,243.477,106.749,245.505,241.218   c1.186,78.639-34.695,148.932-91.289,194.576c-42.031-33.898-95.481-54.206-153.682-54.206   c-53.721,0-103.395,17.302-143.777,46.623c-6.107,4.434-14.508,3.93-20.116-1.12C36.815,393.247,5.5,328.285,5.5,256z"/>
	<path style="fill:#013963;" d="M407.5,15v130v58v241.075c-42.518,35.531-254.095,41.753-293.004,15.735   c-10.236-6.844-19.928-14.44-28.996-22.706V203v-58V15c0-8.284,6.716-15,15-15h292C400.784,0,407.5,6.716,407.5,15z"/>
	<path style="fill:#015D96;" d="M415.5,15v130v58v234.104c-43.54,39.691-245.706,53.531-280,35.265V203v-58V15   c0-8.284,6.716-15,15-15h250C408.784,0,415.5,6.716,415.5,15z"/>
	<path style="fill:#013963;" d="M260.5,30c0,5.523-4.477,10-10,10h-30c-5.523,0-10-4.477-10-10s4.477-10,10-10h30   C256.023,20,260.5,24.477,260.5,30z"/>
	<path style="fill:#81B6E8;" d="M290.5,30c0,5.523-4.477,10-10,10s-10-4.477-10-10s4.477-10,10-10S290.5,24.477,290.5,30z"/>
	<path style="fill:#FFB23C;" d="M386.5,35v120v153.5v151.304C347.59,485.821,300.82,501,250.5,501s-97.09-15.179-136-41.196V308.5   V155V35c0-2.761,2.239-5,5-5h65v15c0,8.284,6.716,15,15,15h102c8.284,0,15-6.716,15-15V30h65C384.261,30,386.5,32.239,386.5,35z"/>
	<path style="fill:#FFD69E;" d="M344.5,385v10c0,2.761-2.239,5-5,5h-190c-2.761,0-5-2.239-5-5v-10c0-2.761,2.239-5,5-5h190   C342.261,380,344.5,382.239,344.5,385z M229.5,420h-80c-2.761,0-5,2.239-5,5v10c0,2.761,2.239,5,5,5h80c2.761,0,5-2.239,5-5v-10   C234.5,422.239,232.261,420,229.5,420z M149.5,360h110c2.761,0,5-2.239,5-5v-10c0-2.761-2.239-5-5-5h-110c-2.761,0-5,2.239-5,5v10   C144.5,357.761,146.739,360,149.5,360z"/>
	<path style="fill:#DE8E01;" d="M276.906,178.895h-11.023v-26.975h32.203c4.248,0,7.692-3.444,7.692-7.692v-15.384   c0-4.248-3.444-7.692-7.692-7.692h-32.203v-4.903c0-4.248-3.444-7.692-7.692-7.692h-15.384c-4.248,0-7.692,3.444-7.692,7.692v4.903   h-11.023c-24.848,0-44.979,20.583-44.236,45.595c0.715,24.071,21.096,42.916,45.177,42.916h10.081v26.975h-32.203   c-4.248,0-7.692,3.444-7.692,7.692v15.384c0,4.248,3.444,7.692,7.692,7.692h32.203v4.903c0,4.248,3.444,7.692,7.692,7.692h15.384   c4.248,0,7.692-3.444,7.692-7.692v-4.903h10.082c24.081,0,44.462-18.845,45.177-42.915   C321.885,199.479,301.754,178.895,276.906,178.895z M224.093,178.895c-7.742,0-13.983-6.558-13.457-14.411   c0.479-7.161,6.756-12.564,13.933-12.564h10.547v26.975H224.093z M290.363,224.073c-0.479,7.161-6.756,12.564-13.933,12.564   h-10.547v-26.975h11.023C284.648,209.662,290.889,216.22,290.363,224.073z"/>
	<path style="fill:#EE9500;" d="M276.906,178.895h-11.023v-26.975h32.203c4.248,0,7.692-3.444,7.692-7.692v-15.384   c0-4.248-3.444-7.692-7.692-7.692h-32.203v-4.903c0-4.248-3.444-7.692-7.692-7.692h-15.384c-4.248,0-7.692,3.444-7.692,7.692v4.903   h-11.023c-6.667,0-12.989,1.494-18.665,4.146c-0.609,4.575-0.929,9.24-0.929,13.981c0,27.079,10.253,51.762,27.086,70.384h3.531   v3.721c8.833,8.866,19.241,16.159,30.768,21.43v-25.152h11.023c7.742,0,13.983,6.558,13.457,14.411   c-0.479,7.161-6.756,12.564-13.933,12.564h-6.307c12.161,4.923,25.45,7.641,39.376,7.641c2.104,0,4.192-0.069,6.266-0.191   c3.229-5.845,5.165-12.49,5.376-19.597C321.885,199.479,301.754,178.895,276.906,178.895z M235.116,178.895h-11.023   c-7.742,0-13.983-6.558-13.457-14.411c0.479-7.161,6.756-12.564,13.933-12.564h10.547V178.895z"/>
	<path style="fill:#5EA1DF;" d="M474.146,245.606c11.442-0.903,21.354,6.882,21.354,16.992v49.863   c0,77.644-42.217,150.601-113.574,196.269l0,0c-6.812,4.36-16.04,4.36-22.852,0l0,0C287.717,463.062,245.5,390.105,245.5,312.461   v-49.863c0-10.11,9.912-17.894,21.354-16.992c3.66,0.289,7.367,0.437,11.113,0.437c30.52,0,58.43-9.769,79.963-25.93   c3.505-2.631,7.963-4.07,12.569-4.07l0,0c4.607,0,9.064,1.439,12.569,4.07c21.533,16.161,49.443,25.93,79.963,25.93   C466.779,246.043,470.485,245.895,474.146,245.606z"/>
	<path style="fill:#81B6E8;" d="M495.5,262.598v49.863c0,73.005-37.326,141.863-101.101,187.793   C317.801,437.683,273.5,349.45,273.5,256.298v-10.343c1.484,0.047,2.97,0.088,4.467,0.088c30.52,0,58.431-9.769,79.963-25.93   c3.505-2.631,7.963-4.07,12.569-4.07s9.064,1.439,12.569,4.07c21.533,16.161,49.443,25.93,79.963,25.93   c3.746,0,7.452-0.148,11.113-0.437C485.588,244.704,495.5,252.489,495.5,262.598z"/>
	<path style="fill:#FFF5F5;" d="M503.571,299.036L378.358,424.249c-2.007,2.007-4.654,2.974-7.283,2.919   c-2.63,0.056-5.277-0.912-7.283-2.919l-62.03-62.03c-3.905-3.905-3.905-10.237,0-14.142l11.965-11.964   c3.905-3.905,10.237-3.905,14.142,0l43.207,43.206l106.39-106.39c3.905-3.905,10.237-3.905,14.142,0l11.964,11.965   C507.476,288.799,507.476,295.13,503.571,299.036z"/>
</g>















</svg>
